HIERARCHY
ROOT Hips
{
	OFFSET 0.000000 0.000000 0.000000
	CHANNELS 6 Xposition Yposition Zposition Zrotation Yrotation Xrotation 
	JOINT LowerBack
	{
		OFFSET 0.000000 0.000000 0.000000
		CHANNELS 3 Zrotation Yrotation Xrotation
		JOINT Spine
		{
			OFFSET 0.028270 2.035590 -0.193380
			CHANNELS 3 Zrotation Yrotation Xrotation
			JOINT Spine1
			{
				OFFSET 0.056720 2.048850 -0.042750
				CHANNELS 3 Zrotation Yrotation Xrotation
				JOINT Neck
				{
					OFFSET 0.000000 0.000000 0.000000
					CHANNELS 3 Zrotation Yrotation Xrotation
					JOINT Neck1
					{
						OFFSET -0.054170 1.746240 0.172020
						CHANNELS 3 Zrotation Yrotation Xrotation
						JOINT Head
						{
							OFFSET 0.104070 1.761360 -0.123970
							CHANNELS 3 Zrotation Yrotation Xrotation
							End Site
							{
								OFFSET 0.000000 0.000000 0.000000
							}
						}
					}
				}
				JOINT LeftShoulder
				{
					OFFSET 0.000000 0.000000 0.000000
					CHANNELS 3 Zrotation Yrotation Xrotation
					JOINT LeftArm
					{
						OFFSET 3.362410 1.200890 -0.311210
						CHANNELS 3 Zrotation Yrotation Xrotation
						JOINT LeftForeArm
						{
							OFFSET 4.983000 -0.000000 -0.000000
							CHANNELS 3 Zrotation Yrotation Xrotation
							JOINT LeftHand
							{
								OFFSET 3.483560 -0.000000 -0.000000
								CHANNELS 3 Zrotation Yrotation Xrotation
								JOINT LeftFingerBase
								{
									OFFSET 0.000000 0.000000 0.000000
									CHANNELS 3 Zrotation Yrotation Xrotation
									JOINT LeftHandIndex1
									{
										OFFSET 0.715260 -0.000000 -0.000000
										CHANNELS 3 Zrotation Yrotation Xrotation
										End Site
										{
											OFFSET 0.000000 0.000000 0.000000
										}
									}
								}
								JOINT LThumb
								{
									OFFSET 0.000000 0.000000 0.000000
									CHANNELS 3 Zrotation Yrotation Xrotation
									End Site
									{
										OFFSET 0.000000 0.000000 0.000000
									}
								}
							}
						}
					}
				}
				JOINT RightShoulder
				{
					OFFSET 0.000000 0.000000 0.000000
					CHANNELS 3 Zrotation Yrotation Xrotation
					JOINT RightArm
					{
						OFFSET -3.136600 1.374050 -0.404650
						CHANNELS 3 Zrotation Yrotation Xrotation
						JOINT RightForeArm
						{
							OFFSET -5.241900 -0.000000 -0.000000
							CHANNELS 3 Zrotation Yrotation Xrotation
							JOINT RightHand
							{
								OFFSET -3.444170 -0.000000 -0.000000
								CHANNELS 3 Zrotation Yrotation Xrotation
								JOINT RightFingerBase
								{
									OFFSET 0.000000 0.000000 0.000000
									CHANNELS 3 Zrotation Yrotation Xrotation
									JOINT RightHandIndex1
									{
										OFFSET -0.622530 -0.000000 -0.000000
										CHANNELS 3 Zrotation Yrotation Xrotation
										End Site
										{
											OFFSET 0.000000 0.000000 0.000000
										}
									}
								}
								JOINT RThumb
								{
									OFFSET 0.000000 0.000000 0.000000
									CHANNELS 3 Zrotation Yrotation Xrotation
									End Site
									{
										OFFSET 0.000000 0.000000 0.000000
									}
								}
							}
						}
					}
				}
			}
		}
	}
}
}
MOTION
Frames: 13
Frame Time: 0.008333
-2.632723 16.107886 -1.787188 178.300966 72.791452 -165.092453 1.174020 -0.868055 -8.619581 -0.426659 -1.249960 -4.431022 -7.053757 -1.184195 -0.610576 9.130572 -13.232897 -8.056692 -3.751315 -0.290972 -0.070796 0.000000 0.000000 0.000000 -1.603344 8.999817 -1.805046 -71.756244 -14.367387 27.241835 -179.566764 -72.097647 179.827529 37.747198 -29.964373 -11.153651 -0.976433 1.311325 -0.000000 0.000000 0.000000 0.000000 0.000000 0.000000 0.000000 10.010158 -8.561337 -1.604954 76.772128 -4.189343 22.838502 -179.587786 83.004809 179.885925 -25.805828 37.886857 -9.339323 0.316879 -0.936738 0.000000 0.000000 0.000000 0.000000 0.000000 0.000000 0.000000 
-2.422665 16.167976 -1.849630 178.869239 71.818333 -164.329851 1.450765 -1.220542 -8.916325 -0.290354 -1.630633 -4.468628 -6.914630 -1.588875 -0.585552 9.039180 -13.983805 -8.021631 -3.667290 -0.285214 -0.050616 0.000000 0.000000 0.000000 -1.298338 7.787599 -1.808188 -72.938798 -15.985795 28.557363 -179.568151 -72.090802 179.820862 37.168717 -30.488997 -11.190503 -0.978447 1.368371 -0.000000 0.000000 0.000000 0.000000 0.000000 0.000000 0.000000 9.473902 -9.698012 -1.528900 76.050841 -5.552311 22.416184 -179.605359 82.136727 179.882492 -26.492113 37.637551 -9.526260 0.323529 -0.929060 0.000000 0.000000 0.000000 0.000000 0.000000 0.000000 0.000000 
-2.209970 16.240368 -1.916338 179.444725 70.896855 -163.617015 1.746207 -1.580567 -9.183987 -0.147444 -2.018675 -4.508390 -6.759917 -2.003274 -0.576693 8.933739 -14.699423 -7.980030 -3.580786 -0.279305 -0.028985 0.000000 0.000000 0.000000 -0.940674 6.610208 -1.814549 -74.129168 -17.426139 29.831961 -179.569463 -72.021619 179.815897 36.496847 -31.032340 -11.197858 -0.977426 1.425185 -0.000000 0.000000 0.000000 0.000000 0.000000 0.000000 0.000000 8.915654 -10.778318 -1.448294 75.311054 -6.881874 22.046343 -179.622573 81.318388 179.879841 -26.984367 37.366206 -9.632824 0.328058 -0.921333 0.000000 0.000000 0.000000 0.000000 0.000000 0.000000 0.000000 
-1.994753 16.323993 -1.986769 -179.975683 70.042852 -162.964460 2.052253 -1.945674 -9.412069 -0.000879 -2.410559 -4.549098 -6.593170 -2.423352 -0.586479 8.819039 -15.366435 -7.928577 -3.494319 -0.273467 -0.005213 0.000000 0.000000 0.000000 -0.532168 5.472160 -1.825778 -75.312751 -18.674449 31.047394 -179.572110 -71.901148 179.812515 35.734462 -31.562588 -11.162930 -0.973049 1.480293 -0.000000 0.000000 0.000000 0.000000 0.000000 0.000000 0.000000 8.351710 -11.788394 -1.364096 74.561118 -8.162514 21.713746 -179.639981 80.571212 179.878071 -27.251055 37.094606 -9.654523 0.329816 -0.913599 0.000000 0.000000 0.000000 0.000000 0.000000 0.000000 0.000000 
-1.777142 16.417646 -2.060341 -179.386826 69.269833 -162.373710 2.362955 -2.312595 -9.590221 0.146741 -2.802231 -4.589201 -6.417990 -2.844400 -0.616636 8.700357 -15.977902 -7.865280 -3.409936 -0.267881 0.021122 0.000000 0.000000 0.000000 -0.073280 4.372756 -1.844194 -76.476483 -19.716879 32.185130 -179.578518 -71.738943 179.810470 34.889600 -32.051635 -11.077240 -0.965087 1.532343 -0.000000 0.000000 0.000000 0.000000 0.000000 0.000000 0.000000 7.795556 -12.721662 -1.277289 73.808356 -9.380832 21.406310 -179.658163 79.904325 179.877214 -27.282745 36.843065 -9.595155 0.328512 -0.906020 0.000000 0.000000 0.000000 0.000000 0.000000 0.000000 0.000000 
-1.557226 16.519851 -2.136518 -178.776655 68.588487 -161.836927 2.674987 -2.677317 -9.710232 0.293291 -3.189296 -4.627084 -6.238044 -3.261311 -0.667628 8.583380 -16.532536 -7.789629 -3.329196 -0.262687 0.050111 0.000000 0.000000 0.000000 0.436625 3.309402 -1.872405 -77.609701 -20.544161 33.229434 -179.591813 -71.545898 179.809442 33.974262 -32.476193 -10.936203 -0.953401 1.580094 -0.000000 0.000000 0.000000 0.000000 0.000000 0.000000 0.000000 7.258331 -13.577636 -1.189135 73.057913 -10.523689 21.116427 -179.677523 79.315543 179.877233 -27.091701 36.627563 -9.465215 0.324246 -0.898845 0.000000 0.000000 0.000000 0.000000 0.000000 0.000000 0.000000 
-1.335097 16.628901 -2.214727 -178.130839 68.005289 -161.342179 2.986501 -3.035631 -9.766238 0.437188 -3.567356 -4.661329 -6.055936 -3.669038 -0.739569 8.472584 -17.034579 -7.701884 -3.253152 -0.257981 0.081709 0.000000 0.000000 0.000000 1.001059 2.274310 -1.913689 -78.706296 -21.148520 34.165394 -179.615710 -71.325818 179.809018 33.001306 -32.819092 -10.739235 -0.937943 1.622729 -0.000000 0.000000 0.000000 0.000000 0.000000 0.000000 0.000000 6.746469 -14.361830 -1.100565 72.312165 -11.581980 20.841450 -179.698116 78.793505 179.878050 -26.709615 36.457389 -9.280196 0.317470 -0.892332 0.000000 0.000000 0.000000 0.000000 0.000000 0.000000 0.000000 
-1.110813 16.742825 -2.294482 -177.438028 67.524899 -160.875049 3.296435 -3.383523 -9.757703 0.577095 -3.932531 -4.690063 -5.874759 -4.062983 -0.826829 8.373135 -17.494097 -7.607304 -3.181557 -0.253696 0.114481 0.000000 0.000000 0.000000 1.616131 1.279425 -1.969452 -79.759969 -21.551149 34.997414 -179.651318 -71.090053 179.808915 31.990350 -33.063421 -10.489147 -0.919243 1.659486 -0.000000 0.000000 0.000000 0.000000 0.000000 0.000000 0.000000 6.264902 -15.084491 -1.014663 71.569774 -12.542941 20.585555 -179.719758 78.319627 179.879481 -26.183718 36.334270 -9.058088 0.308988 -0.886778 0.000000 0.000000 0.000000 0.000000 0.000000 0.000000 0.000000 
-0.884376 16.859444 -2.375276 -176.688834 67.145149 -160.419676 3.603165 -3.717461 -9.687537 0.712164 -4.281269 -4.713508 -5.694794 -4.439367 -0.929823 8.285987 -17.921429 -7.506036 -3.114292 -0.249850 0.148528 0.000000 0.000000 0.000000 2.288243 0.306531 -2.043065 -80.771308 -21.745512 35.711397 -179.702891 -70.834712 179.808720 30.949182 -33.203041 -10.189550 -0.897174 1.690161 -0.000000 0.000000 0.000000 0.000000 0.000000 0.000000 0.000000 5.809792 -15.757178 -0.931176 70.828859 -13.404511 20.354306 -179.741933 77.873091 179.881407 -25.569258 36.256133 -8.818082 0.299688 -0.882379 0.000000 0.000000 0.000000 0.000000 0.000000 0.000000 0.000000 
-0.655764 16.976451 -2.456703 -175.886772 66.862860 -159.965308 3.903130 -4.035088 -9.567108 0.841367 -4.611341 -4.731557 -5.517110 -4.795635 -1.040856 8.212765 -18.329674 -7.404837 -3.049927 -0.246267 0.182072 0.000000 0.000000 0.000000 3.010931 -0.628752 -2.134295 -81.738905 -21.767755 36.323124 -179.769574 -70.566053 179.808278 29.894355 -33.226744 -9.845939 -0.872556 1.714544 -0.000000 0.000000 0.000000 0.000000 0.000000 0.000000 0.000000 5.378436 -16.392012 -0.853473 70.084010 -14.161231 20.158124 -179.764070 77.430938 179.883636 -24.924056 36.214258 -8.578162 0.290584 -0.879362 0.000000 0.000000 0.000000 0.000000 0.000000 0.000000 0.000000 
-0.424869 17.091563 -2.538301 -175.039996 66.666914 -159.503548 4.191812 -4.335781 -9.410209 0.964079 -4.922151 -4.745778 -5.341160 -5.131243 -1.156768 8.152470 -18.730151 -7.306387 -2.987393 -0.242853 0.214526 0.000000 0.000000 0.000000 3.781331 -1.532343 -2.243367 -82.662966 -21.634220 36.835072 -179.852151 -70.281589 179.807456 28.832021 -33.131764 -9.463720 -0.845681 1.732792 -0.000000 0.000000 0.000000 0.000000 0.000000 0.000000 0.000000 4.964204 -17.000504 -0.782376 69.330227 -14.814214 20.006176 -179.785712 76.974813 179.886014 -24.300687 36.198782 -8.354026 0.282557 -0.877822 0.000000 0.000000 0.000000 0.000000 0.000000 0.000000 0.000000 
-0.191578 17.202718 -2.619678 -174.171124 66.544839 -159.037150 4.461333 -4.620391 -9.234426 1.079251 -5.214420 -4.757776 -5.166879 -5.446911 -1.271319 8.104529 -19.131834 -7.215463 -2.925828 -0.239497 0.244690 0.000000 0.000000 0.000000 4.588413 -2.395123 -2.367876 -83.541474 -21.379145 37.263983 -179.948024 -69.979778 179.806289 27.770800 -32.913856 -9.048779 -0.817350 1.745229 -0.000000 0.000000 0.000000 0.000000 0.000000 0.000000 0.000000 4.564885 -17.591218 -0.720432 68.561197 -15.365738 19.906366 -179.806537 76.489833 179.888423 -23.741677 36.198708 -8.157262 0.276350 -0.877821 0.000000 0.000000 0.000000 0.000000 0.000000 0.000000 0.000000 
0.044250 17.308104 -2.700569 -173.308783 66.482454 -158.576952 4.702778 -4.890758 -9.056813 1.185955 -5.489771 -4.769829 -4.993485 -5.744417 -1.381250 8.066880 -19.541056 -7.134137 -2.864696 -0.236140 0.272142 0.000000 0.000000 0.000000 5.417950 -3.219689 -2.504712 -84.369939 -21.023415 37.619019 179.944616 -69.658170 179.804892 26.712213 -32.574772 -8.606507 -0.787971 1.752284 -0.000000 0.000000 0.000000 0.000000 0.000000 0.000000 0.000000 4.177396 -18.170643 -0.668614 67.771363 -15.820447 19.863309 -179.826592 75.969402 179.890801 -23.274148 36.203790 -7.994968 0.272425 -0.879282 0.000000 0.000000 0.000000 0.000000 0.000000 0.000000 0.000000 
